<?xml version="1.0" encoding="utf-8"?>
<!-- Generator: Adobe Illustrator 27.3.1, SVG Export Plug-In . SVG Version: 6.00 Build 0)  -->
<svg version="1.1" id="Layer_1" xmlns="http://www.w3.org/2000/svg" xmlns:xlink="http://www.w3.org/1999/xlink" x="0px" y="0px"
	 viewBox="0 0 2210.98 783.5" style="enable-background:new 0 0 2210.98 783.5;" xml:space="preserve">
<style type="text/css">
	.st1{fill:#FFFFFF;}
</style>
<g>
	<path class="st1" d="M619.21,325.71h71.55c44.75,0,72.5,22.97,72.5,60.54c0,37.33-27.76,60.3-72.5,60.3h-34.7v46.66h-36.85v-77.05
		h69.63c24.41,0,37.09-11.01,37.09-29.91c0-19.14-12.68-30.15-37.09-30.15h-69.63V325.71z"/>
	<path class="st1" d="M950.62,493.21h-39.96l-32.78-47.14c-0.96,0-1.91,0-2.87,0h-34.7v47.14h-36.85V416.4h69.63
		c24.41,0,37.09-11.25,37.09-30.15c0-19.14-12.68-30.15-37.09-30.15h-69.63v-30.39h71.55c44.75,0,72.5,22.97,72.5,60.54
		c0,25.13-12.68,43.55-34.7,52.88L950.62,493.21z"/>
	<path class="st1" d="M980.05,409.46c0-49.77,38.76-86.38,91.41-86.38c52.4,0,91.17,36.37,91.17,86.38s-38.76,86.38-91.17,86.38
		C1018.82,495.85,980.05,459.24,980.05,409.46z M1125.3,409.46c0-32.3-23.21-55.04-53.84-55.04c-30.87,0-54.08,22.73-54.08,55.04
		c0,32.3,23.21,55.04,54.08,55.04C1102.09,464.5,1125.3,441.77,1125.3,409.46z"/>
	<path class="st1" d="M1176.99,471.44l20.58-24.41c9.09,11.96,19.38,18.43,31.59,18.43c16.03,0,24.41-9.57,24.41-28.48v-81.36h-59.1
		v-29.91h95.72v109.12c0,40.92-20.58,61.02-59.34,61.02C1208.57,495.85,1188.95,487.23,1176.99,471.44z"/>
	<path class="st1" d="M1341.85,325.71h125.39v29.91h-125.39V325.71z M1341.85,393.67h125.39v28.95h-125.39V393.67z M1341.85,493.21
		h125.39V463.3h-125.39V493.21z"/>
	<path class="st1" d="M1503.13,409.46c0-50.25,38.53-86.38,90.69-86.38c28.71,0,52.64,10.05,68.2,29.19l-23.69,22.01
		c-11.49-13.16-25.84-19.86-42.83-19.86c-32.06,0-55.04,22.73-55.04,55.04c0,32.3,22.97,55.04,55.04,55.04
		c16.99,0,31.35-6.7,42.83-20.1l23.69,22.25c-15.55,19.14-39.48,29.19-68.44,29.19C1541.66,495.85,1503.13,459.71,1503.13,409.46z"
		/>
	<path class="st1" d="M1733.81,493.21V356.1h-54.08v-30.39h145.01v30.39h-54.08v137.11H1733.81z"/>
	<path class="st1" d="M1842.44,409.46c0-55.28,30.63-86.38,71.55-86.38c40.92,0,71.31,31.11,71.31,86.38
		c0,55.28-30.39,86.38-71.31,86.38C1873.07,495.85,1842.44,464.74,1842.44,409.46z M1947.97,409.46c0-38.53-13.88-55.04-33.98-55.04
		s-34.22,16.51-34.22,55.04s14.12,55.04,34.22,55.04S1947.97,447.99,1947.97,409.46z"/>
</g>
<path class="st1" d="M348.9,228.63c-102.98,0-186.45,83.47-186.45,186.45c0,102.97,83.47,186.44,186.45,186.44
	c102.97,0,186.45-83.47,186.45-186.44C535.35,312.1,451.87,228.63,348.9,228.63z M256.54,363.58v142.45l-31.13-18.37V345.8
	c10.33-6.09,20.66-12.18,30.99-18.27c10.21-6.03,20.42-12.06,30.63-18.09l0.2,0.13c41.24,24.33,82.47,48.66,123.71,72.99v69.32
	c-20.88,12.32-41.76,24.64-62.64,36.97V452.7c10.5-6.06,21-12.12,31.51-18.18v-34.18c-30.86-18.21-61.72-36.42-92.58-54.62
	l-0.2-0.13C276.87,351.59,266.71,357.59,256.54,363.58z M318.36,542.5c-10.16-6-20.33-12-30.5-18l-0.63-0.36V379.9l31.13,18.37
	V542.5z M472.38,483.82c-41.36,24.41-82.72,48.82-124.08,73.22v-36.15c30.98-18.28,61.96-36.56,92.95-54.85V363.92
	c-40.96-24.17-81.93-48.34-122.89-72.52v-0.44l30.26-17.85c41.25,24.34,82.51,48.69,123.76,73.04V483.82z"/>
<polygon class="st1" points="1965.18,317.51 1989.92,317.51 1864.97,493.21 1839.38,493.21 "/>
</svg>
